<svg width="24" height="25" viewBox="0 0 24 25" fill="none" xmlns="http://www.w3.org/2000/svg">
<path d="M20.05 18.5102C19.59 18.5102 19.12 18.3902 18.7 18.1402L12.36 14.4802C12.07 14.3102 11.84 14.1102 11.67 13.8902C11.56 13.7602 11.5 13.5902 11.5 13.4202V10.8602C11.5 10.6902 11.56 10.5202 11.67 10.3902C11.85 10.1702 12.08 9.97022 12.36 9.81022L18.71 6.14021C19.55 5.65021 20.56 5.65021 21.41 6.14021C22.26 6.63021 22.76 7.5002 22.76 8.4802V15.8002C22.76 16.7802 22.26 17.6502 21.41 18.1402C20.98 18.3902 20.51 18.5102 20.05 18.5102ZM12.99 13.1102C13.03 13.1402 13.07 13.1702 13.11 13.1902L19.44 16.8402C19.82 17.0602 20.27 17.0602 20.64 16.8402C21.02 16.6202 21.24 16.2302 21.24 15.8002V8.4802C21.24 8.0502 21.02 7.66022 20.64 7.44022C20.26 7.22022 19.82 7.22022 19.44 7.44022L13.1 11.1002C13.06 11.1202 13.02 11.1502 12.99 11.1802V13.1102Z" fill="#6A564F"/>
<path d="M10.29 18.5102C9.83001 18.5102 9.36 18.3902 8.94 18.1402L2.60001 14.4802C1.76001 13.9902 1.25 13.1202 1.25 12.1402C1.25 11.1602 1.75001 10.2902 2.60001 9.80021L8.94 6.14021C9.78 5.65021 10.79 5.65021 11.64 6.14021C12.49 6.63021 12.99 7.5002 12.99 8.4802V15.8002C12.99 16.7802 12.49 17.6502 11.64 18.1402C11.22 18.3902 10.75 18.5102 10.29 18.5102ZM10.29 7.29023C10.08 7.29023 9.88 7.3402 9.69 7.4502L3.35001 11.1102C2.97001 11.3302 2.75 11.7202 2.75 12.1502C2.75 12.5802 2.97001 12.9702 3.35001 13.1902L9.69 16.8502C10.07 17.0702 10.52 17.0702 10.89 16.8502C11.27 16.6302 11.49 16.2502 11.49 15.8102V8.49021C11.49 8.06021 11.27 7.6702 10.89 7.4502C10.7 7.3402 10.5 7.29023 10.29 7.29023Z" fill="#6A564F"/>
</svg>
