<svg width="23" height="23" viewBox="0 0 23 23" fill="none" xmlns="http://www.w3.org/2000/svg">
<g opacity="0.65">
<path d="M14.6596 15.396H8.05158C7.10744 15.396 6.63538 15.396 6.20949 15.5252C5.7855 15.6538 5.39528 15.8748 5.06684 16.1722C4.73693 16.4709 4.49405 16.8757 4.0083 17.6853V7.49182C4.0083 5.6062 4.0083 4.66339 4.59409 4.07761C5.17987 3.49182 6.12268 3.49182 8.0083 3.49182H14.6596C16.5452 3.49182 17.488 3.49182 18.0738 4.07761C18.6596 4.66339 18.6596 5.6062 18.6596 7.49182V11.396C18.6596 13.2816 18.6596 14.2244 18.0738 14.8102C17.488 15.396 16.5452 15.396 14.6596 15.396Z" fill="white" fill-opacity="0.25"/>
<path d="M18.6596 11.7332V15.9745C18.6596 17.8601 18.6596 18.803 18.0738 19.3887C17.488 19.9745 16.5452 19.9745 14.6596 19.9745H6.29757C5.03324 19.9745 4.0083 18.9496 4.0083 17.6853V17.6853C4.0083 16.4209 5.03324 15.396 6.29756 15.396H14.6596C16.5452 15.396 17.488 15.396 18.0738 14.8102C18.6596 14.2244 18.6596 13.2816 18.6596 11.396V7.49182C18.6596 5.6062 18.6596 4.66339 18.0738 4.07761C17.488 3.49182 16.5452 3.49182 14.6596 3.49182H8.0083C6.12268 3.49182 5.17987 3.49182 4.59409 4.07761C4.0083 4.66339 4.0083 5.6062 4.0083 7.49182V17.6853" stroke="white" stroke-width="1.2"/>
<path d="M8.58691 8.07034L14.0811 8.07034" stroke="white" stroke-width="1.2" stroke-linecap="round"/>
</g>
</svg>
