<svg width="24" height="25" viewBox="0 0 24 25" fill="none" xmlns="http://www.w3.org/2000/svg">
<path d="M9 17.9001C8.9 17.9001 8.81 17.8801 8.71 17.8401C8.43 17.7301 8.25 17.4501 8.25 17.1501V11.1501C8.25 10.7401 8.59 10.4001 9 10.4001C9.41 10.4001 9.75 10.7401 9.75 11.1501V15.3401L10.47 14.6201C10.76 14.3301 11.24 14.3301 11.53 14.6201C11.82 14.9101 11.82 15.3901 11.53 15.6801L9.53 17.6801C9.39 17.8201 9.19 17.9001 9 17.9001Z" fill="#6A564F"/>
<path d="M8.99994 17.9001C8.80994 17.9001 8.61994 17.8301 8.46994 17.6801L6.46994 15.6801C6.17994 15.3901 6.17994 14.9101 6.46994 14.6201C6.75994 14.3301 7.23994 14.3301 7.52994 14.6201L9.52994 16.6201C9.81994 16.9101 9.81994 17.3901 9.52994 17.6801C9.37994 17.8301 9.18994 17.9001 8.99994 17.9001Z" fill="#6A564F"/>
<path d="M15 22.9001H9C3.57 22.9001 1.25 20.5801 1.25 15.1501V9.15015C1.25 3.72015 3.57 1.40015 9 1.40015H14C14.41 1.40015 14.75 1.74015 14.75 2.15015C14.75 2.56015 14.41 2.90015 14 2.90015H9C4.39 2.90015 2.75 4.54015 2.75 9.15015V15.1501C2.75 19.7601 4.39 21.4001 9 21.4001H15C19.61 21.4001 21.25 19.7601 21.25 15.1501V10.1501C21.25 9.74015 21.59 9.40015 22 9.40015C22.41 9.40015 22.75 9.74015 22.75 10.1501V15.1501C22.75 20.5801 20.43 22.9001 15 22.9001Z" fill="#6A564F"/>
<path d="M22 10.9001H18C14.58 10.9001 13.25 9.57014 13.25 6.15014V2.15014C13.25 1.85014 13.43 1.57014 13.71 1.46014C13.99 1.34014 14.31 1.41014 14.53 1.62014L22.53 9.62014C22.74 9.83014 22.81 10.1601 22.69 10.4401C22.57 10.7201 22.3 10.9001 22 10.9001ZM14.75 3.96014V6.15014C14.75 8.73013 15.42 9.40014 18 9.40014H20.19L14.75 3.96014Z" fill="#6A564F"/>
</svg>
