<svg width="30" height="27" viewBox="0 0 30 27" fill="none" xmlns="http://www.w3.org/2000/svg">
<g filter="url(#filter0_d_2244_748)">
<path d="M6.95001 18.5102C6.49001 18.5102 6.02001 18.3902 5.60001 18.1402C4.75001 17.6502 4.25 16.7802 4.25 15.8002V8.4802C4.25 7.5002 4.75001 6.63021 5.60001 6.14021C6.45001 5.65021 7.45999 5.65021 8.29999 6.14021L14.64 9.80021C14.93 9.97021 15.16 10.1702 15.34 10.3902C15.45 10.5202 15.51 10.6902 15.51 10.8602V13.4202C15.51 13.5902 15.45 13.7602 15.34 13.8902C15.16 14.1102 14.93 14.3102 14.66 14.4702L8.29999 18.1502C7.87999 18.3902 7.42001 18.5102 6.95001 18.5102ZM6.95001 7.29023C6.74001 7.29023 6.54001 7.3402 6.35001 7.4502C5.97001 7.6702 5.75 8.06021 5.75 8.49021V15.8102C5.75 16.2402 5.97001 16.6302 6.35001 16.8502C6.73001 17.0702 7.16999 17.0702 7.54999 16.8502L13.89 13.1902C13.93 13.1702 13.97 13.1402 14 13.1102V11.1802C13.96 11.1502 13.92 11.1202 13.88 11.1002L7.54999 7.4502C7.35999 7.3402 7.16001 7.29023 6.95001 7.29023Z" fill="#6A564F"/>
<path d="M16.7097 18.5102C16.2497 18.5102 15.7797 18.3902 15.3597 18.1402C14.5097 17.6502 14.0098 16.7802 14.0098 15.8002V8.4802C14.0098 7.5002 14.5097 6.63021 15.3597 6.14021C16.2097 5.65021 17.2198 5.65021 18.0598 6.14021L24.3997 9.80021C25.2397 10.2902 25.7498 11.1602 25.7498 12.1402C25.7498 13.1202 25.2498 13.9902 24.3997 14.4802L18.0598 18.1402C17.6398 18.3902 17.1697 18.5102 16.7097 18.5102ZM16.7097 7.29023C16.4997 7.29023 16.2997 7.3402 16.1097 7.4502C15.7297 7.6702 15.5098 8.05021 15.5098 8.49021V15.8102C15.5098 16.2402 15.7297 16.6302 16.1097 16.8502C16.4897 17.0702 16.9398 17.0702 17.3098 16.8502L23.6497 13.1902C24.0297 12.9702 24.2498 12.5802 24.2498 12.1502C24.2498 11.7202 24.0297 11.3302 23.6497 11.1102L17.3098 7.4502C17.1198 7.3402 16.9197 7.29023 16.7097 7.29023Z" fill="#6A564F"/>
</g>

</svg>
