<svg width="23" height="17" viewBox="0 0 23 17" fill="none" xmlns="http://www.w3.org/2000/svg">
<path d="M0.587891 8.12963C1.52067 6.65319 2.72467 5.5374 4.45805 5.23167C5.49409 5.0488 6.5207 5.23941 7.52161 5.57371C7.98222 5.72868 8.45268 5.85221 8.9225 5.97376C9.01419 5.99767 9.13823 5.97265 9.2235 5.92483C10.3232 5.31011 11.4192 4.68897 12.5114 4.06141C12.6078 4.00606 12.6947 3.89958 12.744 3.79575C13.0641 3.11985 13.355 2.42846 13.6899 1.76053C14.0112 1.12072 14.463 0.611087 15.1653 0.396341C15.5736 0.2717 15.9723 0.352064 16.374 0.423129C16.7894 0.496851 17.205 0.568802 17.6215 0.63544C18.1331 0.71691 18.3581 1.07268 18.2169 1.58873C18.165 1.77846 18.1098 1.96753 18.0485 2.18892C18.4178 1.95425 18.7752 1.76828 19.1788 1.78909C19.4732 1.80392 19.7786 1.85152 20.0535 1.95469C20.5426 2.13755 21.0144 2.37112 21.491 2.58852C21.918 2.78312 22.0457 3.18937 21.8094 3.61067C21.437 4.27483 21.0583 4.93412 20.6739 5.61135C21.3895 5.95494 21.8227 6.60471 22.3366 7.16106C22.658 7.50908 22.6365 7.8768 22.2938 8.20734C20.4068 10.0173 18.5184 11.8252 16.6285 13.6313C16.2215 14.0221 15.7219 14.1808 15.1874 14.2432C12.5224 14.5554 9.85856 14.8648 7.19576 15.1715C6.47143 15.2552 5.74603 15.3278 5.02149 15.4113C4.90831 15.426 4.79734 15.4552 4.69114 15.4983C3.67709 15.8968 2.66354 16.2968 1.6505 16.6982C1.09948 16.9163 0.885249 16.8432 0.587891 16.334V8.12963ZM12.169 7.37381H11.9361C11.2782 7.37381 10.6203 7.3685 9.96261 7.37514C9.10392 7.38342 8.24995 7.24304 7.43613 6.95982C6.93553 6.78846 6.4236 6.65469 5.90435 6.55955C4.7764 6.35211 3.75879 6.63017 2.89285 7.4172C2.58263 7.69903 2.29577 8.01074 2.01941 8.32843C1.935 8.4254 1.88166 8.5879 1.88101 8.72073C1.87266 10.79 1.87523 12.8596 1.87523 14.9289V15.1852L2.08004 15.1047C2.82001 14.812 3.55933 14.5173 4.30059 14.2286C4.43298 14.177 4.57181 14.1303 4.71128 14.1142C6.30904 13.9302 7.90788 13.756 9.50564 13.5727C11.2598 13.3712 13.0125 13.1565 14.7673 12.9623C15.2748 12.9061 15.6958 12.7391 16.0788 12.3595C17.307 11.1418 18.568 9.9605 19.8161 8.76501L21.0045 7.62619C20.8518 7.4606 20.7101 7.30607 20.5672 7.15287C20.1212 6.67401 19.645 6.66426 19.1856 7.12785C18.1166 8.20711 17.0452 9.28394 15.9835 10.371C15.7594 10.6005 15.5179 10.703 15.2022 10.703C13.0641 10.6955 10.926 10.6999 8.78796 10.7006C8.24466 10.7006 7.72021 10.7872 7.24139 11.0723C6.87291 11.2917 6.49735 11.2195 6.30369 10.8879C6.10552 10.5483 6.21799 10.1573 6.5884 9.92796C7.05522 9.63728 7.5651 9.4553 8.10497 9.4212C8.82459 9.37693 9.54742 9.38069 10.2687 9.36785C11.3056 9.34947 12.1465 8.47743 12.169 7.37381ZM12.8207 9.36785C13.535 9.36785 14.228 9.36342 14.9202 9.37117C15.0683 9.37294 15.1717 9.32689 15.2763 9.2204C16.2849 8.19472 17.2916 7.16726 18.3148 6.15751C18.5322 5.94298 18.8157 5.80041 19.0646 5.61998C19.1426 5.56353 19.2319 5.5053 19.2788 5.42472C19.618 4.84357 19.9479 4.25668 20.2797 3.67088C20.3033 3.62926 20.3185 3.58233 20.344 3.52366C20.049 3.39415 19.7752 3.2394 19.4826 3.15837C19.2983 3.11343 19.1048 3.13273 18.9322 3.21328C18.7407 3.30847 18.5723 3.47783 18.4279 3.64609C17.505 4.72292 16.5913 5.80949 15.6694 6.88986C15.5775 6.99259 15.4717 7.08109 15.3553 7.15265C14.7056 7.56775 14.0513 7.97532 13.4004 8.38843C13.3297 8.43271 13.2466 8.48407 13.2098 8.55491C13.0752 8.81084 12.9576 9.07739 12.8207 9.36785ZM16.7952 1.85307C16.4711 1.79507 16.1671 1.75411 15.8697 1.68415C15.5724 1.61419 15.3217 1.70341 15.1398 1.9341C14.9685 2.15035 14.8212 2.38584 14.7008 2.63612C14.3857 3.29718 14.1036 3.97551 13.7822 4.63326C13.6871 4.81952 13.5456 4.97619 13.3724 5.0871C12.9034 5.38177 12.4128 5.64057 11.9314 5.9131C11.8802 5.94232 11.8329 5.97951 11.7386 6.04349H12.7772C13.2642 6.04349 13.4583 6.20201 13.5761 6.71297C13.8975 6.51151 14.215 6.31646 14.5277 6.11412C14.6318 6.05084 14.7274 5.97373 14.812 5.88476C15.1899 5.46191 15.5642 5.03507 15.9308 4.60071C16.0143 4.5021 16.0777 4.38713 16.1174 4.26265C16.253 3.81988 16.3745 3.3729 16.4989 2.92702C16.5968 2.57479 16.6932 2.22212 16.7952 1.85307Z" fill="white" fill-opacity="0.65"/>
</svg>
