<svg width="24" height="25" viewBox="0 0 24 25" fill="none" xmlns="http://www.w3.org/2000/svg">
<path d="M12 21.8001C11.69 21.8001 11.39 21.7601 11.14 21.6701C7.32 20.3601 1.25 15.7101 1.25 8.84012C1.25 5.34012 4.08 2.50012 7.56 2.50012C9.25 2.50012 10.83 3.16012 12 4.34012C13.17 3.16012 14.75 2.50012 16.44 2.50012C19.92 2.50012 22.75 5.35012 22.75 8.84012C22.75 15.7201 16.68 20.3601 12.86 21.6701C12.61 21.7601 12.31 21.8001 12 21.8001ZM7.56 4.00012C4.91 4.00012 2.75 6.17012 2.75 8.84012C2.75 15.6701 9.32 19.4701 11.63 20.2601C11.81 20.3201 12.2 20.3201 12.38 20.2601C14.68 19.4701 21.26 15.6801 21.26 8.84012C21.26 6.17012 19.1 4.00012 16.45 4.00012C14.93 4.00012 13.52 4.71012 12.61 5.94012C12.33 6.32012 11.69 6.32012 11.41 5.94012C10.48 4.70012 9.08 4.00012 7.56 4.00012Z" fill="#6A564F"/>
</svg>
