<svg width="15" height="11" viewBox="0 0 15 11" fill="none" xmlns="http://www.w3.org/2000/svg">
<path d="M0.895623 5.02307C0.592185 5.02307 0.3462 5.26905 0.3462 5.57249C0.3462 5.87593 0.592185 6.12191 0.895623 6.12191H13.7155C14.0189 6.12191 14.2649 5.87593 14.2649 5.57249C14.2649 5.26905 14.0189 5.02307 13.7155 5.02307H0.895623Z" fill="white" fill-opacity="0.65"/>
<path d="M0.895623 9.6016C0.592185 9.6016 0.3462 9.84758 0.3462 10.151C0.3462 10.4545 0.592185 10.7004 0.895623 10.7004H13.7155C14.0189 10.7004 14.2649 10.4545 14.2649 10.151C14.2649 9.84758 14.0189 9.6016 13.7155 9.6016H0.895623Z" fill="white" fill-opacity="0.65"/>
<path d="M0.895615 0.627686C0.592177 0.627686 0.346191 0.873671 0.346191 1.17711C0.346191 1.48055 0.592177 1.72653 0.895615 1.72653H13.7155C14.0189 1.72653 14.2649 1.48055 14.2649 1.17711C14.2649 0.873671 14.0189 0.627686 13.7155 0.627686H0.895615Z" fill="white" fill-opacity="0.65"/>
</svg>
