<svg width="68" height="68" viewBox="0 0 68 68" fill="none" xmlns="http://www.w3.org/2000/svg">
<g clip-path="url(#clip0_30_2320)">
<path d="M34.0449 57.0516C33.4283 57.052 32.8189 56.9195 32.2581 56.6632C31.6973 56.4068 31.1984 56.0327 30.7952 55.5661L28.2578 52.629C28.2507 52.6206 28.2433 52.6122 28.2366 52.6034C28.1864 52.5394 28.1222 52.4879 28.0489 52.4528C27.9756 52.4176 27.8952 52.3999 27.8139 52.4008H1.4374C1.22816 52.4008 1.02748 52.3177 0.87952 52.1697C0.73156 52.0218 0.648438 51.8211 0.648438 51.6119V16.7718C0.648438 16.5625 0.73156 16.3619 0.87952 16.2139C1.02748 16.0659 1.22816 15.9828 1.4374 15.9828H5.42612C5.53108 15.9807 5.63541 15.9995 5.73302 16.0381C5.83062 16.0768 5.91952 16.1345 5.99452 16.208C6.06952 16.2815 6.1291 16.3692 6.16977 16.4659C6.21045 16.5627 6.2314 16.6666 6.2314 16.7716C6.2314 16.8766 6.21045 16.9805 6.16977 17.0773C6.1291 17.1741 6.06952 17.2618 5.99452 17.3352C5.91952 17.4087 5.83062 17.4665 5.73302 17.5051C5.63541 17.5438 5.53108 17.5626 5.42612 17.5604H2.22637V50.8246H27.8139C28.1301 50.8237 28.4424 50.8941 28.7277 51.0305C29.013 51.1669 29.2639 51.3659 29.4617 51.6125L31.989 54.5371C32.2441 54.8323 32.5597 55.0691 32.9145 55.2314C33.2692 55.3937 33.6548 55.4777 34.0449 55.4777C34.4351 55.4777 34.8206 55.3937 35.1754 55.2314C35.5302 55.0691 35.8458 54.8323 36.1009 54.5371L38.6282 51.6122C38.8261 51.3656 39.077 51.1668 39.3622 51.0304C39.6475 50.8941 39.9598 50.8237 40.276 50.8246H65.8635V17.5564H62.6637C62.5588 17.5585 62.4544 17.5397 62.3568 17.5011C62.2592 17.4624 62.1703 17.4047 62.0953 17.3312C62.0203 17.2577 61.9608 17.17 61.9201 17.0733C61.8794 16.9765 61.8585 16.8726 61.8585 16.7676C61.8585 16.6626 61.8794 16.5587 61.9201 16.4619C61.9608 16.3651 62.0203 16.2774 62.0953 16.2039C62.1703 16.1305 62.2592 16.0727 62.3568 16.0341C62.4544 15.9954 62.5588 15.9766 62.6637 15.9788H66.6525C66.8617 15.9788 67.0624 16.0619 67.2104 16.2099C67.3583 16.3578 67.4414 16.5585 67.4414 16.7677V51.6095C67.4414 51.8187 67.3583 52.0194 67.2104 52.1674C67.0624 52.3153 66.8617 52.3985 66.6525 52.3985H40.276C40.1947 52.3975 40.1143 52.4153 40.041 52.4504C39.9677 52.4855 39.9035 52.5371 39.8533 52.601C39.8465 52.6098 39.8391 52.6182 39.832 52.6267L37.295 55.5638C36.892 56.0307 36.393 56.4053 35.8322 56.662C35.2713 56.9188 34.6618 57.0516 34.0449 57.0516Z" fill="white"/>
<path d="M34.045 53.024C33.9262 53.024 33.8089 52.9972 33.7019 52.9455C33.595 52.8938 33.5011 52.8187 33.4272 52.7256L31.3618 50.1231C30.9388 49.5873 30.3997 49.1547 29.7851 48.8578C29.1705 48.5609 28.4965 48.4074 27.814 48.4091H5.42617C5.21695 48.409 5.01633 48.3258 4.86839 48.1779C4.72045 48.03 4.6373 47.8293 4.63721 47.6201V11.4546C4.63721 11.2454 4.72033 11.0447 4.86829 10.8968C5.01625 10.7488 5.21693 10.6657 5.42617 10.6657H27.7552C30.4898 10.6657 32.8664 12.2237 34.045 14.4984C35.2235 12.2237 37.6006 10.6657 40.3344 10.6657H62.6638C62.8731 10.6657 63.0737 10.7488 63.2217 10.8968C63.3697 11.0447 63.4528 11.2454 63.4528 11.4546V47.6208C63.4527 47.83 63.3695 48.0306 63.2216 48.1786C63.0737 48.3265 62.873 48.4097 62.6638 48.4098H40.276C39.5935 48.408 38.9195 48.5613 38.305 48.8581C37.6904 49.1549 37.1512 49.5875 36.7282 50.1231L34.6628 52.7256C34.5889 52.8187 34.495 52.8938 34.388 52.9455C34.2811 52.9972 34.1638 53.024 34.045 53.024ZM6.21514 46.8318H27.814C28.7342 46.8295 29.643 47.0362 30.4716 47.4365C31.3003 47.8368 32.0271 48.4201 32.5974 49.1423L34.045 50.9654L35.4926 49.1423C36.0628 48.4201 36.7897 47.8368 37.6184 47.4365C38.447 47.0362 39.3558 46.8295 40.276 46.8318H61.8748V12.2436H40.3361C37.3031 12.2436 34.8356 14.7111 34.8356 17.7441V47.6215C34.8356 47.8307 34.7525 48.0314 34.6046 48.1794C34.4566 48.3273 34.2559 48.4104 34.0467 48.4104C33.8374 48.4104 33.6368 48.3273 33.4888 48.1794C33.3408 48.0314 33.2577 47.8307 33.2577 47.6215V17.7441C33.2577 14.7111 30.7902 12.2436 27.7569 12.2436H6.21818L6.21514 46.8318Z" fill="white"/>
<path d="M34.0448 53.024C33.8356 53.024 33.6349 52.9409 33.4869 52.7929C33.339 52.645 33.2559 52.4443 33.2559 52.2351V46.7619C33.2559 46.5527 33.339 46.352 33.4869 46.204C33.6349 46.0561 33.8356 45.973 34.0448 45.973C34.2541 45.973 34.4547 46.0561 34.6027 46.204C34.7507 46.352 34.8338 46.5527 34.8338 46.7619V52.2351C34.8338 52.3387 34.8134 52.4413 34.7737 52.537C34.7341 52.6327 34.676 52.7197 34.6027 52.7929C34.5294 52.8662 34.4425 52.9243 34.3467 52.964C34.251 53.0036 34.1484 53.024 34.0448 53.024Z" fill="white"/>
<path d="M34.1209 17.5564H33.9693C33.8644 17.5585 33.76 17.5397 33.6624 17.5011C33.5648 17.4624 33.4759 17.4047 33.4009 17.3312C33.3259 17.2577 33.2664 17.17 33.2257 17.0733C33.185 16.9765 33.1641 16.8726 33.1641 16.7676C33.1641 16.6626 33.185 16.5587 33.2257 16.4619C33.2664 16.3651 33.3259 16.2774 33.4009 16.2039C33.4759 16.1305 33.5648 16.0727 33.6624 16.0341C33.76 15.9954 33.8644 15.9766 33.9693 15.9788H34.1209C34.3273 15.983 34.5238 16.068 34.6682 16.2155C34.8127 16.363 34.8936 16.5612 34.8936 16.7676C34.8936 16.974 34.8127 17.1722 34.6682 17.3197C34.5238 17.4671 34.3273 17.5521 34.1209 17.5564Z" fill="white"/>
<path d="M34.045 53.024C33.9262 53.024 33.8089 52.9972 33.7019 52.9455C33.595 52.8938 33.5011 52.8187 33.4272 52.7256L31.3618 50.1231C30.9388 49.5873 30.3997 49.1547 29.7851 48.8578C29.1705 48.5609 28.4965 48.4074 27.814 48.4091H5.42617C5.21695 48.409 5.01633 48.3258 4.86839 48.1779C4.72045 48.03 4.6373 47.8293 4.63721 47.6201V11.4546C4.63721 11.2454 4.72033 11.0447 4.86829 10.8968C5.01625 10.7488 5.21693 10.6657 5.42617 10.6657H27.7552C30.4898 10.6657 32.8664 12.2237 34.045 14.4984C35.2235 12.2237 37.6006 10.6657 40.3344 10.6657H62.6638C62.8731 10.6657 63.0737 10.7488 63.2217 10.8968C63.3697 11.0447 63.4528 11.2454 63.4528 11.4546V47.6208C63.4527 47.83 63.3695 48.0306 63.2216 48.1786C63.0737 48.3265 62.873 48.4097 62.6638 48.4098H40.276C39.5935 48.408 38.9195 48.5613 38.305 48.8581C37.6904 49.1549 37.1512 49.5875 36.7282 50.1231L34.6628 52.7256C34.5889 52.8187 34.495 52.8938 34.388 52.9455C34.2811 52.9972 34.1638 53.024 34.045 53.024ZM6.21514 46.8318H27.814C28.7342 46.8295 29.643 47.0362 30.4716 47.4365C31.3003 47.8368 32.0271 48.4201 32.5974 49.1423L34.045 50.9654L35.4926 49.1423C36.0628 48.4201 36.7897 47.8368 37.6184 47.4365C38.447 47.0362 39.3558 46.8295 40.276 46.8318H61.8748V12.2436H40.3361C37.3031 12.2436 34.8356 14.7111 34.8356 17.7441V47.6215C34.8356 47.8307 34.7525 48.0314 34.6046 48.1794C34.4566 48.3273 34.2559 48.4104 34.0467 48.4104C33.8374 48.4104 33.6368 48.3273 33.4888 48.1794C33.3408 48.0314 33.2577 47.8307 33.2577 47.6215V17.7441C33.2577 14.7111 30.7902 12.2436 27.7569 12.2436H6.21818L6.21514 46.8318Z" fill="white"/>
<path d="M34.0448 53.024C33.8356 53.024 33.6349 52.9409 33.4869 52.7929C33.339 52.645 33.2559 52.4443 33.2559 52.2351V46.7619C33.2559 46.5527 33.339 46.352 33.4869 46.204C33.6349 46.0561 33.8356 45.973 34.0448 45.973C34.2541 45.973 34.4547 46.0561 34.6027 46.204C34.7507 46.352 34.8338 46.5527 34.8338 46.7619V52.2351C34.8338 52.3387 34.8134 52.4413 34.7737 52.537C34.7341 52.6327 34.676 52.7197 34.6027 52.7929C34.5294 52.8662 34.4425 52.9243 34.3467 52.964C34.251 53.0036 34.1484 53.024 34.0448 53.024Z" fill="white"/>
<path d="M28.1445 18.2107H11.4027C11.1935 18.2107 10.9928 18.1275 10.8449 17.9796C10.6969 17.8316 10.6138 17.6309 10.6138 17.4217C10.6138 17.2124 10.6969 17.0118 10.8449 16.8638C10.9928 16.7158 11.1935 16.6327 11.4027 16.6327H28.1445C28.3538 16.6327 28.5545 16.7158 28.7024 16.8638C28.8504 17.0118 28.9335 17.2124 28.9335 17.4217C28.9335 17.6309 28.8504 17.8316 28.7024 17.9796C28.5545 18.1275 28.3538 18.2107 28.1445 18.2107Z" fill="white"/>
<path d="M28.1443 23.0555H11.4025C11.2975 23.0577 11.1932 23.0389 11.0956 23.0002C10.998 22.9616 10.909 22.9038 10.8341 22.8303C10.7591 22.7569 10.6995 22.6692 10.6588 22.5724C10.6181 22.4756 10.5972 22.3717 10.5972 22.2667C10.5972 22.1617 10.6181 22.0578 10.6588 21.961C10.6995 21.8642 10.7591 21.7766 10.8341 21.7031C10.909 21.6296 10.998 21.5719 11.0956 21.5332C11.1932 21.4945 11.2975 21.4757 11.4025 21.4779H28.1443C28.2492 21.4757 28.3535 21.4945 28.4512 21.5332C28.5488 21.5719 28.6377 21.6296 28.7127 21.7031C28.7877 21.7766 28.8472 21.8642 28.8879 21.961C28.9286 22.0578 28.9495 22.1617 28.9495 22.2667C28.9495 22.3717 28.9286 22.4756 28.8879 22.5724C28.8472 22.6692 28.7877 22.7569 28.7127 22.8303C28.6377 22.9038 28.5488 22.9616 28.4512 23.0002C28.3535 23.0389 28.2492 23.0577 28.1443 23.0555Z" fill="white"/>
<path d="M28.1445 27.9034H11.4027C11.1935 27.9034 10.9928 27.8203 10.8449 27.6723C10.6969 27.5244 10.6138 27.3237 10.6138 27.1144C10.6138 26.9052 10.6969 26.7045 10.8449 26.5566C10.9928 26.4086 11.1935 26.3255 11.4027 26.3255H28.1445C28.3538 26.3255 28.5545 26.4086 28.7024 26.5566C28.8504 26.7045 28.9335 26.9052 28.9335 27.1144C28.9335 27.3237 28.8504 27.5244 28.7024 27.6723C28.5545 27.8203 28.3538 27.9034 28.1445 27.9034Z" fill="white"/>
<path d="M28.1443 32.7496H11.4025C11.2975 32.7518 11.1932 32.733 11.0956 32.6943C10.998 32.6557 10.909 32.5979 10.8341 32.5245C10.7591 32.451 10.6995 32.3633 10.6588 32.2665C10.6181 32.1697 10.5972 32.0658 10.5972 31.9608C10.5972 31.8559 10.6181 31.7519 10.6588 31.6552C10.6995 31.5584 10.7591 31.4707 10.8341 31.3972C10.909 31.3238 10.998 31.266 11.0956 31.2273C11.1932 31.1887 11.2975 31.1699 11.4025 31.172H28.1443C28.2492 31.1699 28.3535 31.1887 28.4512 31.2273C28.5488 31.266 28.6377 31.3238 28.7127 31.3972C28.7877 31.4707 28.8472 31.5584 28.8879 31.6552C28.9286 31.7519 28.9495 31.8559 28.9495 31.9608C28.9495 32.0658 28.9286 32.1697 28.8879 32.2665C28.8472 32.3633 28.7877 32.451 28.7127 32.5245C28.6377 32.5979 28.5488 32.6557 28.4512 32.6943C28.3535 32.733 28.2492 32.7518 28.1443 32.7496Z" fill="white"/>
<path d="M28.1445 37.5961H11.4027C11.1935 37.5961 10.9928 37.513 10.8449 37.3651C10.6969 37.2171 10.6138 37.0164 10.6138 36.8072C10.6138 36.5979 10.6969 36.3973 10.8449 36.2493C10.9928 36.1013 11.1935 36.0182 11.4027 36.0182H28.1445C28.3538 36.0182 28.5545 36.1013 28.7024 36.2493C28.8504 36.3973 28.9335 36.5979 28.9335 36.8072C28.9335 37.0164 28.8504 37.2171 28.7024 37.3651C28.5545 37.513 28.3538 37.5961 28.1445 37.5961Z" fill="white"/>
<path d="M28.1445 42.4427H11.4027C11.1935 42.4427 10.9928 42.3596 10.8449 42.2116C10.6969 42.0637 10.6138 41.863 10.6138 41.6537C10.6138 41.4445 10.6969 41.2438 10.8449 41.0959C10.9928 40.9479 11.1935 40.8648 11.4027 40.8648H28.1445C28.3538 40.8648 28.5545 40.9479 28.7024 41.0959C28.8504 41.2438 28.9335 41.4445 28.9335 41.6537C28.9335 41.863 28.8504 42.0637 28.7024 42.2116C28.5545 42.3596 28.3538 42.4427 28.1445 42.4427Z" fill="white"/>
</g>
<defs>
<clipPath id="clip0_30_2320">
<rect width="67.5195" height="67.5195" fill="white" transform="translate(0.285156 0.098877)"/>
</clipPath>
</defs>
</svg>
