<svg width="24" height="25" viewBox="0 0 24 25" fill="none" xmlns="http://www.w3.org/2000/svg">
<path d="M6.30975 20.2402C5.73975 20.2402 5.17976 20.0902 4.65976 19.7902C3.61976 19.1902 3.00977 18.1302 3.00977 16.9302V7.36016C3.00977 6.17016 3.62976 5.10017 4.65976 4.50017C5.69976 3.90017 6.92975 3.90017 7.95975 4.50017L16.2498 9.28017C17.2798 9.88017 17.8997 10.9502 17.8997 12.1402C17.8997 13.3302 17.2798 14.4002 16.2498 15.0002L7.95975 19.7802C7.43975 20.0902 6.87975 20.2402 6.30975 20.2402ZM6.30975 5.56017C5.99975 5.56017 5.68976 5.64016 5.40976 5.80016C4.84976 6.13016 4.50977 6.71016 4.50977 7.36016V16.9302C4.50977 17.5802 4.84976 18.1602 5.40976 18.4902C5.96976 18.8102 6.64975 18.8202 7.20975 18.4902L15.4998 13.7102C16.0598 13.3802 16.3997 12.8002 16.3997 12.1502C16.3997 11.5002 16.0598 10.9202 15.4998 10.5902L7.20975 5.81017C6.92975 5.65017 6.61975 5.56017 6.30975 5.56017Z" fill="#6A564F"/>
<path d="M20.2402 19.0802C19.8302 19.0802 19.4902 18.7402 19.4902 18.3302V5.97021C19.4902 5.56021 19.8302 5.22021 20.2402 5.22021C20.6502 5.22021 20.9902 5.56021 20.9902 5.97021V18.3302C20.9902 18.7402 20.6602 19.0802 20.2402 19.0802Z" fill="#6A564F"/>
</svg>
