<svg width="16" height="20" viewBox="0 0 16 20" fill="none" xmlns="http://www.w3.org/2000/svg">
<path d="M13.3955 19.5556H2.58817C1.96089 19.5549 1.35953 19.3054 0.915981 18.8618C0.472433 18.4183 0.222918 17.8169 0.222168 17.1896V2.94077C0.222918 2.31349 0.472433 1.71213 0.915981 1.26858C1.35953 0.825033 1.96089 0.575518 2.58817 0.574768H9.6753C9.76832 0.574726 9.86044 0.59301 9.9464 0.628575C10.0324 0.66414 10.1105 0.71629 10.1763 0.782047L15.5542 6.15901C15.6199 6.22481 15.6721 6.30292 15.7076 6.38888C15.7432 6.47483 15.7615 6.56695 15.7614 6.65998V17.1892C15.7608 17.8165 15.5114 18.418 15.0678 18.8616C14.6242 19.3053 14.0228 19.5549 13.3955 19.5556ZM2.58817 1.99125C2.33641 1.9915 2.09505 2.09162 1.91703 2.26963C1.73902 2.44765 1.6389 2.68902 1.63865 2.94077V17.1896C1.6389 17.4414 1.73902 17.6828 1.91703 17.8608C2.09505 18.0388 2.33641 18.1389 2.58817 18.1391H13.3955C13.6472 18.1389 13.8886 18.0388 14.0666 17.8608C14.2446 17.6828 14.3447 17.4414 14.345 17.1896V6.95319L9.38303 1.99125H2.58817Z" fill="white" fill-opacity="0.65"/>
<path d="M15.0532 7.36822H11.334C10.7067 7.36747 10.1054 7.11795 9.66181 6.6744C9.21827 6.23086 8.96875 5.62949 8.968 5.00222V1.28301C8.968 1.09517 9.04262 0.915028 9.17544 0.782207C9.30826 0.649386 9.48746 0.574768 9.6753 0.574768C9.86313 0.574768 10.0434 0.649226 10.1763 0.782047C10.3091 0.914868 10.3845 1.09517 10.3845 1.28301V5.00222C10.3847 5.25397 10.4849 5.49534 10.6629 5.67335C10.8409 5.85137 11.0822 5.95148 11.334 5.95173H15.0532C15.241 5.95173 15.4213 6.02619 15.5542 6.15901C15.687 6.29183 15.7614 6.47214 15.7614 6.65998C15.7614 6.84781 15.6868 7.02796 15.554 7.16078C15.4212 7.2936 15.241 7.36822 15.0532 7.36822Z" fill="white" fill-opacity="0.65"/>
<path d="M11.7698 9.92355H4.21523C4.02739 9.92355 3.84725 9.84893 3.71443 9.71611C3.58161 9.58329 3.50699 9.40315 3.50699 9.21531C3.50699 9.02747 3.58161 8.84733 3.71443 8.71451C3.84725 8.58169 4.02739 8.50707 4.21523 8.50707H11.7698C11.8628 8.50707 11.9549 8.52539 12.0408 8.56098C12.1268 8.59657 12.2048 8.64874 12.2706 8.71451C12.3364 8.78027 12.3885 8.85835 12.4241 8.94428C12.4597 9.03021 12.478 9.1223 12.478 9.21531C12.478 9.30832 12.4597 9.40041 12.4241 9.48634C12.3885 9.57227 12.3364 9.65034 12.2706 9.71611C12.2048 9.78188 12.1268 9.83405 12.0408 9.86964C11.9549 9.90523 11.8628 9.92355 11.7698 9.92355Z" fill="white" fill-opacity="0.65"/>
<path d="M11.7698 12.8509H4.21523C4.02739 12.8509 3.84725 12.7763 3.71443 12.6435C3.58161 12.5107 3.50699 12.3305 3.50699 12.1427C3.50699 11.9549 3.58161 11.7747 3.71443 11.6419C3.84725 11.5091 4.02739 11.4345 4.21523 11.4345H11.7698C11.9576 11.4345 12.1378 11.5091 12.2706 11.6419C12.4034 11.7747 12.478 11.9549 12.478 12.1427C12.478 12.3305 12.4034 12.5107 12.2706 12.6435C12.1378 12.7763 11.9576 12.8509 11.7698 12.8509Z" fill="white" fill-opacity="0.65"/>
<path d="M11.7698 15.7783H4.21523C4.02739 15.7783 3.84725 15.7037 3.71443 15.5709C3.58161 15.4381 3.50699 15.2579 3.50699 15.0701C3.50699 14.8823 3.58161 14.7021 3.71443 14.5693C3.84725 14.4365 4.02739 14.3619 4.21523 14.3619H11.7698C11.9576 14.3619 12.1378 14.4365 12.2706 14.5693C12.4034 14.7021 12.478 14.8823 12.478 15.0701C12.478 15.2579 12.4034 15.4381 12.2706 15.5709C12.1378 15.7037 11.9576 15.7783 11.7698 15.7783Z" fill="white" fill-opacity="0.65"/>
</svg>
