<svg width="24" height="25" viewBox="0 0 24 25" fill="none" xmlns="http://www.w3.org/2000/svg">
<path d="M8.64 21.9001H5.01C3.15 21.9001 2.25 21.0401 2.25 19.2601V5.04015C2.25 3.26015 3.15 2.40015 5.01 2.40015H8.64C10.5 2.40015 11.4 3.26015 11.4 5.04015V19.2601C11.4 21.0401 10.5 21.9001 8.64 21.9001ZM5.01 3.90015C3.93 3.90015 3.75 4.17015 3.75 5.04015V19.2601C3.75 20.1301 3.92 20.4001 5.01 20.4001H8.64C9.72 20.4001 9.9 20.1301 9.9 19.2601V5.04015C9.9 4.17015 9.73 3.90015 8.64 3.90015H5.01Z" fill="#6A564F"/>
<path d="M18.9901 21.9001H15.3601C13.5001 21.9001 12.6001 21.0401 12.6001 19.2601V5.04015C12.6001 3.26015 13.5001 2.40015 15.3601 2.40015H18.9901C20.8501 2.40015 21.7501 3.26015 21.7501 5.04015V19.2601C21.7501 21.0401 20.8501 21.9001 18.9901 21.9001ZM15.3601 3.90015C14.2801 3.90015 14.1001 4.17015 14.1001 5.04015V19.2601C14.1001 20.1301 14.2701 20.4001 15.3601 20.4001H18.9901C20.0701 20.4001 20.2501 20.1301 20.2501 19.2601V5.04015C20.2501 4.17015 20.0801 3.90015 18.9901 3.90015H15.3601Z" fill="#6A564F"/>
</svg>
