<svg width="24" height="25" viewBox="0 0 24 25" fill="none" xmlns="http://www.w3.org/2000/svg">
<path d="M17.6901 20.2401C17.1201 20.2401 16.5601 20.0901 16.0401 19.7901L7.75009 15.0101C6.72009 14.4101 6.1001 13.3401 6.1001 12.1501C6.1001 10.9601 6.72009 9.89009 7.75009 9.29009L16.0401 4.51006C17.0701 3.91006 18.3001 3.91006 19.3401 4.51006C20.3801 5.11006 20.9901 6.17007 20.9901 7.37007V16.9401C20.9901 18.1301 20.3701 19.2001 19.3401 19.8001C18.8201 20.0901 18.2601 20.2401 17.6901 20.2401ZM17.6901 5.56008C17.3801 5.56008 17.0701 5.64007 16.7901 5.80007L8.50009 10.5801C7.94009 10.9101 7.6001 11.4901 7.6001 12.1401C7.6001 12.7901 7.94009 13.3701 8.50009 13.7001L16.7901 18.4801C17.3501 18.8101 18.0301 18.8101 18.5901 18.4801C19.1501 18.1501 19.4901 17.5701 19.4901 16.9201V7.35009C19.4901 6.70009 19.1501 6.12009 18.5901 5.79009C18.3101 5.65009 18.0001 5.56008 17.6901 5.56008Z" fill="#6A564F"/>
<path d="M3.75977 19.0802C3.34977 19.0802 3.00977 18.7402 3.00977 18.3302V5.97021C3.00977 5.56021 3.34977 5.22021 3.75977 5.22021C4.16977 5.22021 4.50977 5.56021 4.50977 5.97021V18.3302C4.50977 18.7402 4.16977 19.0802 3.75977 19.0802Z" fill="#6A564F"/>
</svg>
