<svg width="68" height="63" viewBox="0 0 68 63" fill="none" xmlns="http://www.w3.org/2000/svg">
<g clip-path="url(#clip0_2216_1172)">
<path d="M33.7598 51.9527C33.1432 51.9531 32.5337 51.8206 31.973 51.5643C31.4122 51.308 30.9132 50.9338 30.5101 50.4673L27.9727 47.5302C27.9656 47.5217 27.9582 47.5133 27.9514 47.5045C27.9012 47.4406 27.837 47.389 27.7637 47.3539C27.6904 47.3188 27.61 47.301 27.5287 47.3019H1.15225C0.943 47.3019 0.742324 47.2188 0.594364 47.0709C0.446404 46.9229 0.363281 46.7222 0.363281 46.513V11.6729C0.363281 11.4637 0.446404 11.263 0.594364 11.115C0.742324 10.9671 0.943 10.884 1.15225 10.884H5.14096C5.24592 10.8818 5.35026 10.9006 5.44786 10.9392C5.54546 10.9779 5.63437 11.0357 5.70936 11.1091C5.78436 11.1826 5.84394 11.2703 5.88462 11.3671C5.92529 11.4638 5.94625 11.5678 5.94625 11.6727C5.94625 11.7777 5.92529 11.8817 5.88462 11.9784C5.84394 12.0752 5.78436 12.1629 5.70936 12.2364C5.63437 12.3098 5.54546 12.3676 5.44786 12.4063C5.35026 12.4449 5.24592 12.4637 5.14096 12.4615H1.94121V45.7257H27.5287C27.8449 45.7248 28.1573 45.7952 28.4426 45.9316C28.7278 46.068 28.9787 46.267 29.1766 46.5137L31.7038 49.4383C31.9589 49.7334 32.2746 49.9702 32.6293 50.1325C32.9841 50.2948 33.3696 50.3788 33.7598 50.3788C34.1499 50.3788 34.5355 50.2948 34.8902 50.1325C35.245 49.9702 35.5607 49.7334 35.8157 49.4383L38.343 46.5133C38.5409 46.2667 38.7918 46.0679 39.0771 45.9316C39.3623 45.7952 39.6746 45.7248 39.9908 45.7257H65.5783V12.4575H62.3786C62.2736 12.4597 62.1693 12.4409 62.0717 12.4022C61.9741 12.3635 61.8852 12.3058 61.8102 12.2323C61.7352 12.1589 61.6756 12.0712 61.6349 11.9744C61.5943 11.8776 61.5733 11.7737 61.5733 11.6687C61.5733 11.5637 61.5943 11.4598 61.6349 11.363C61.6756 11.2662 61.7352 11.1785 61.8102 11.1051C61.8852 11.0316 61.9741 10.9739 62.0717 10.9352C62.1693 10.8965 62.2736 10.8777 62.3786 10.8799H66.3673C66.5766 10.8799 66.7772 10.963 66.9252 11.111C67.0732 11.2589 67.1563 11.4596 67.1563 11.6689V46.5106C67.1563 46.7199 67.0732 46.9205 66.9252 47.0685C66.7772 47.2165 66.5766 47.2996 66.3673 47.2996H39.9908C39.9095 47.2986 39.8291 47.3164 39.7558 47.3515C39.6825 47.3867 39.6183 47.4382 39.5681 47.5021C39.5614 47.5109 39.554 47.5194 39.5469 47.5278L37.0098 50.4649C36.6068 50.9318 36.1079 51.3064 35.547 51.5632C34.9862 51.8199 34.3766 51.9528 33.7598 51.9527V51.9527Z" fill="white"/>
<path d="M33.7598 47.9252C33.641 47.9251 33.5238 47.8983 33.4168 47.8466C33.3098 47.7949 33.2159 47.7198 33.142 47.6267L31.0766 45.0242C30.6537 44.4885 30.1146 44.0558 29.5 43.7589C28.8854 43.462 28.2114 43.3086 27.5288 43.3102H5.14102C4.9318 43.3101 4.73117 43.227 4.58323 43.079C4.43529 42.9311 4.35214 42.7305 4.35205 42.5212V6.35577C4.35205 6.14652 4.43517 5.94585 4.58313 5.79789C4.73109 5.64993 4.93177 5.5668 5.14102 5.5668H27.4701C30.2046 5.5668 32.5813 7.12482 33.7598 9.39955C34.9384 7.12482 37.3154 5.5668 40.0493 5.5668H62.3787C62.5879 5.5668 62.7886 5.64993 62.9365 5.79789C63.0845 5.94585 63.1676 6.14652 63.1676 6.35577V42.5219C63.1675 42.7311 63.0844 42.9318 62.9364 43.0797C62.7885 43.2276 62.5879 43.3108 62.3787 43.3109H39.9909C39.3084 43.3091 38.6344 43.4625 38.0198 43.7593C37.4052 44.0561 36.8661 44.4886 36.4431 45.0242L34.3776 47.6267C34.3038 47.7198 34.2099 47.7949 34.1029 47.8466C33.9959 47.8983 33.8786 47.9251 33.7598 47.9252V47.9252ZM5.92998 41.733H27.5288C28.449 41.7306 29.3578 41.9374 30.1865 42.3376C31.0151 42.7379 31.742 43.3212 32.3122 44.0435L33.7598 45.8665L35.2075 44.0435C35.7777 43.3212 36.5046 42.7379 37.3332 42.3376C38.1619 41.9374 39.0706 41.7306 39.9909 41.733H61.5897V7.14473H40.051C37.018 7.14473 34.5505 9.61223 34.5505 12.6452V42.5226C34.5505 42.7318 34.4674 42.9325 34.3194 43.0805C34.1714 43.2284 33.9708 43.3116 33.7615 43.3116C33.5523 43.3116 33.3516 43.2284 33.2036 43.0805C33.0557 42.9325 32.9726 42.7318 32.9726 42.5226V12.6452C32.9726 9.61223 30.5051 7.14473 27.4717 7.14473H5.93302L5.92998 41.733Z" fill="white"/>
<path d="M33.7597 47.9251C33.5504 47.9251 33.3497 47.842 33.2018 47.6941C33.0538 47.5461 32.9707 47.3454 32.9707 47.1362V41.663C32.9707 41.4538 33.0538 41.2531 33.2018 41.1052C33.3497 40.9572 33.5504 40.8741 33.7597 40.8741C33.9689 40.8741 34.1696 40.9572 34.3176 41.1052C34.4655 41.2531 34.5486 41.4538 34.5486 41.663V47.1362C34.5486 47.2398 34.5282 47.3424 34.4886 47.4381C34.4489 47.5338 34.3908 47.6208 34.3176 47.6941C34.2443 47.7673 34.1573 47.8254 34.0616 47.8651C33.9659 47.9047 33.8633 47.9251 33.7597 47.9251V47.9251Z" fill="white"/>
<path d="M33.8358 12.4575H33.6842C33.5792 12.4597 33.4749 12.4409 33.3773 12.4022C33.2797 12.3635 33.1908 12.3058 33.1158 12.2323C33.0408 12.1589 32.9812 12.0712 32.9405 11.9744C32.8999 11.8776 32.8789 11.7737 32.8789 11.6687C32.8789 11.5637 32.8999 11.4598 32.9405 11.363C32.9812 11.2662 33.0408 11.1785 33.1158 11.1051C33.1908 11.0316 33.2797 10.9739 33.3773 10.9352C33.4749 10.8965 33.5792 10.8777 33.6842 10.8799H33.8358C34.0421 10.8842 34.2386 10.9691 34.3831 11.1166C34.5275 11.2641 34.6084 11.4623 34.6084 11.6687C34.6084 11.8751 34.5275 12.0733 34.3831 12.2208C34.2386 12.3682 34.0421 12.4532 33.8358 12.4575V12.4575Z" fill="white"/>
<path d="M33.7598 47.9252C33.641 47.9251 33.5238 47.8983 33.4168 47.8466C33.3098 47.7949 33.2159 47.7198 33.142 47.6267L31.0766 45.0242C30.6537 44.4885 30.1146 44.0558 29.5 43.7589C28.8854 43.462 28.2114 43.3086 27.5288 43.3102H5.14102C4.9318 43.3101 4.73117 43.227 4.58323 43.079C4.43529 42.9311 4.35214 42.7305 4.35205 42.5212V6.35577C4.35205 6.14652 4.43517 5.94585 4.58313 5.79789C4.73109 5.64993 4.93177 5.5668 5.14102 5.5668H27.4701C30.2046 5.5668 32.5813 7.12482 33.7598 9.39955C34.9384 7.12482 37.3154 5.5668 40.0493 5.5668H62.3787C62.5879 5.5668 62.7886 5.64993 62.9365 5.79789C63.0845 5.94585 63.1676 6.14652 63.1676 6.35577V42.5219C63.1675 42.7311 63.0844 42.9318 62.9364 43.0797C62.7885 43.2276 62.5879 43.3108 62.3787 43.3109H39.9909C39.3084 43.3091 38.6344 43.4625 38.0198 43.7593C37.4052 44.0561 36.8661 44.4886 36.4431 45.0242L34.3776 47.6267C34.3038 47.7198 34.2099 47.7949 34.1029 47.8466C33.9959 47.8983 33.8786 47.9251 33.7598 47.9252V47.9252ZM5.92998 41.733H27.5288C28.449 41.7306 29.3578 41.9374 30.1865 42.3376C31.0151 42.7379 31.742 43.3212 32.3122 44.0435L33.7598 45.8665L35.2075 44.0435C35.7777 43.3212 36.5046 42.7379 37.3332 42.3376C38.1619 41.9374 39.0706 41.7306 39.9909 41.733H61.5897V7.14473H40.051C37.018 7.14473 34.5505 9.61223 34.5505 12.6452V42.5226C34.5505 42.7318 34.4674 42.9325 34.3194 43.0805C34.1714 43.2284 33.9708 43.3116 33.7615 43.3116C33.5523 43.3116 33.3516 43.2284 33.2036 43.0805C33.0557 42.9325 32.9726 42.7318 32.9726 42.5226V12.6452C32.9726 9.61223 30.5051 7.14473 27.4717 7.14473H5.93302L5.92998 41.733Z" fill="white"/>
<path d="M33.7597 47.9251C33.5504 47.9251 33.3497 47.842 33.2018 47.6941C33.0538 47.5461 32.9707 47.3454 32.9707 47.1362V41.663C32.9707 41.4538 33.0538 41.2531 33.2018 41.1052C33.3497 40.9572 33.5504 40.8741 33.7597 40.8741C33.9689 40.8741 34.1696 40.9572 34.3176 41.1052C34.4655 41.2531 34.5486 41.4538 34.5486 41.663V47.1362C34.5486 47.2398 34.5282 47.3424 34.4886 47.4381C34.4489 47.5338 34.3908 47.6208 34.3176 47.6941C34.2443 47.7673 34.1573 47.8254 34.0616 47.8651C33.9659 47.9047 33.8633 47.9251 33.7597 47.9251V47.9251Z" fill="white"/>
<path d="M57.5474 12.5779H40.8056C40.5963 12.5779 40.3956 12.4948 40.2477 12.3468C40.0997 12.1989 40.0166 11.9982 40.0166 11.789C40.0166 11.5797 40.0997 11.379 40.2477 11.2311C40.3956 11.0831 40.5963 11 40.8056 11H57.5474C57.7566 11 57.9573 11.0831 58.1052 11.2311C58.2532 11.379 58.3363 11.5797 58.3363 11.789C58.3363 11.9982 58.2532 12.1989 58.1052 12.3468C57.9573 12.4948 57.7566 12.5779 57.5474 12.5779V12.5779Z" fill="white"/>
<path d="M57.5471 17.4228H40.8053C40.7003 17.425 40.596 17.4062 40.4984 17.3675C40.4008 17.3288 40.3119 17.2711 40.2369 17.1976C40.1619 17.1242 40.1023 17.0365 40.0616 16.9397C40.021 16.8429 40 16.739 40 16.634C40 16.529 40.021 16.4251 40.0616 16.3283C40.1023 16.2315 40.1619 16.1438 40.2369 16.0704C40.3119 15.9969 40.4008 15.9392 40.4984 15.9005C40.596 15.8618 40.7003 15.843 40.8053 15.8452H57.5471C57.652 15.843 57.7564 15.8618 57.854 15.9005C57.9516 15.9392 58.0405 15.9969 58.1155 16.0704C58.1905 16.1438 58.2501 16.2315 58.2907 16.3283C58.3314 16.4251 58.3524 16.529 58.3524 16.634C58.3524 16.739 58.3314 16.8429 58.2907 16.9397C58.2501 17.0365 58.1905 17.1242 58.1155 17.1976C58.0405 17.2711 57.9516 17.3288 57.854 17.3675C57.7564 17.4062 57.652 17.425 57.5471 17.4228Z" fill="white"/>
<path d="M57.5474 22.2707H40.8056C40.5963 22.2707 40.3956 22.1876 40.2477 22.0396C40.0997 21.8916 40.0166 21.691 40.0166 21.4817C40.0166 21.2725 40.0997 21.0718 40.2477 20.9238C40.3956 20.7759 40.5963 20.6927 40.8056 20.6927H57.5474C57.7566 20.6927 57.9573 20.7759 58.1052 20.9238C58.2532 21.0718 58.3363 21.2725 58.3363 21.4817C58.3363 21.691 58.2532 21.8916 58.1052 22.0396C57.9573 22.1876 57.7566 22.2707 57.5474 22.2707Z" fill="white"/>
<path d="M57.5471 27.1169H40.8053C40.7003 27.1191 40.596 27.1003 40.4984 27.0616C40.4008 27.023 40.3119 26.9652 40.2369 26.8917C40.1619 26.8183 40.1023 26.7306 40.0616 26.6338C40.021 26.537 40 26.4331 40 26.3281C40 26.2231 40.021 26.1192 40.0616 26.0224C40.1023 25.9256 40.1619 25.838 40.2369 25.7645C40.3119 25.691 40.4008 25.6333 40.4984 25.5946C40.596 25.5559 40.7003 25.5372 40.8053 25.5393H57.5471C57.652 25.5372 57.7564 25.5559 57.854 25.5946C57.9516 25.6333 58.0405 25.691 58.1155 25.7645C58.1905 25.838 58.2501 25.9256 58.2907 26.0224C58.3314 26.1192 58.3524 26.2231 58.3524 26.3281C58.3524 26.4331 58.3314 26.537 58.2907 26.6338C58.2501 26.7306 58.1905 26.8183 58.1155 26.8917C58.0405 26.9652 57.9516 27.023 57.854 27.0616C57.7564 27.1003 57.652 27.1191 57.5471 27.1169Z" fill="white"/>
<path d="M57.5474 31.9634H40.8056C40.5963 31.9634 40.3956 31.8803 40.2477 31.7323C40.0997 31.5844 40.0166 31.3837 40.0166 31.1745C40.0166 30.9652 40.0997 30.7645 40.2477 30.6166C40.3956 30.4686 40.5963 30.3855 40.8056 30.3855H57.5474C57.7566 30.3855 57.9573 30.4686 58.1052 30.6166C58.2532 30.7645 58.3363 30.9652 58.3363 31.1745C58.3363 31.3837 58.2532 31.5844 58.1052 31.7323C57.9573 31.8803 57.7566 31.9634 57.5474 31.9634V31.9634Z" fill="white"/>
<path d="M57.5474 36.81H40.8056C40.5963 36.81 40.3956 36.7269 40.2477 36.5789C40.0997 36.4309 40.0166 36.2303 40.0166 36.021C40.0166 35.8118 40.0997 35.6111 40.2477 35.4631C40.3956 35.3152 40.5963 35.2321 40.8056 35.2321H57.5474C57.7566 35.2321 57.9573 35.3152 58.1052 35.4631C58.2532 35.6111 58.3363 35.8118 58.3363 36.021C58.3363 36.2303 58.2532 36.4309 58.1052 36.5789C57.9573 36.7269 57.7566 36.81 57.5474 36.81V36.81Z" fill="white"/>
</g>
<defs>
<clipPath id="clip0_2216_1172">
<rect width="67.5195" height="67.5195" fill="white" transform="translate(0 -5)"/>
</clipPath>
</defs>
</svg>
