<svg width="17" height="17" viewBox="0 0 17 17" fill="none" xmlns="http://www.w3.org/2000/svg">
<path d="M1.34619 6.15954C1.34619 3.66666 1.34619 2.42022 2.12063 1.64578C2.89507 0.871338 4.14151 0.871338 6.63439 0.871338H10.1599C12.6527 0.871338 13.8992 0.871338 14.6736 1.64578C15.4481 2.42022 15.4481 3.66666 15.4481 6.15954V12.1772C15.4481 14.5421 15.4481 15.7246 14.7039 16.0863C13.9598 16.448 13.03 15.7174 11.1704 14.2563L10.5752 13.7887C9.5296 12.9671 9.00679 12.5563 8.39713 12.5563C7.78746 12.5563 7.26465 12.9671 6.21902 13.7887L5.62387 14.2563C3.76426 15.7174 2.83446 16.448 2.09032 16.0863C1.34619 15.7246 1.34619 14.5421 1.34619 12.1772V6.15954Z" fill="white" fill-opacity="0.4" stroke="white" stroke-width="1.3125"/>
</svg>
