<svg width="18" height="19" viewBox="0 0 18 19" fill="none" xmlns="http://www.w3.org/2000/svg">
<path d="M1.6665 7.25C1.6665 4.65728 1.6665 3.36091 2.47196 2.55546C3.27742 1.75 4.57378 1.75 7.1665 1.75H10.8332C13.4259 1.75 14.7223 1.75 15.5277 2.55546C16.3332 3.36091 16.3332 4.65728 16.3332 7.25V13.5086C16.3332 15.9683 16.3332 17.1982 15.5592 17.5743C14.7853 17.9505 13.8183 17.1907 11.8842 15.671L11.2652 15.1847C10.1777 14.3302 9.63392 13.903 8.99984 13.903C8.36576 13.903 7.822 14.3302 6.73449 15.1847L6.11551 15.671C4.18142 17.1907 3.21438 17.9505 2.44044 17.5743C1.6665 17.1982 1.6665 15.9683 1.6665 13.5086V7.25Z" stroke="white" stroke-opacity="0.73" stroke-width="2"/>
</svg>
