<svg width="30" height="31" viewBox="0 0 30 31" fill="none" xmlns="http://www.w3.org/2000/svg">
<g filter="url(#filter0_d_30_2591)">
<path d="M23.6201 13.2201C23.2401 13.2201 22.9201 12.9301 22.8701 12.5501C22.6301 10.2901 21.4101 8.24013 19.5301 6.94013C19.1901 6.70013 19.1101 6.24013 19.3401 5.90013C19.5801 5.56013 20.0501 5.48013 20.3801 5.71013C22.6201 7.26013 24.0601 9.70013 24.3501 12.3901C24.3901 12.8001 24.1001 13.1701 23.6801 13.2201C23.6701 13.2201 23.6401 13.2201 23.6201 13.2201Z" fill="#6A564F"/>
<path d="M6.48991 13.2702C6.45991 13.2702 6.43991 13.2702 6.40991 13.2702C5.99991 13.2202 5.69991 12.8502 5.73991 12.4402C6.00991 9.75016 7.43991 7.32016 9.64991 5.75016C9.98991 5.51016 10.4599 5.59016 10.6999 5.93016C10.9399 6.27016 10.8599 6.74016 10.5199 6.98016C8.65991 8.29016 7.45991 10.3402 7.22991 12.6002C7.19991 12.9802 6.86991 13.2702 6.48991 13.2702Z" fill="#6A564F"/>
<path d="M15.06 22.7601C13.58 22.7601 12.17 22.4201 10.85 21.7601C10.48 21.5701 10.33 21.1201 10.52 20.7501C10.71 20.3801 11.16 20.2301 11.53 20.4201C13.69 21.5101 16.29 21.5301 18.47 20.4801C18.84 20.3001 19.29 20.4601 19.47 20.8301C19.65 21.2001 19.49 21.6501 19.12 21.8301C17.84 22.4501 16.48 22.7601 15.06 22.7601Z" fill="#6A564F"/>
<path d="M15.0598 8.59015C13.1098 8.59015 11.5298 7.01015 11.5298 5.06015C11.5298 3.11015 13.1098 1.53015 15.0598 1.53015C17.0098 1.53015 18.5898 3.11015 18.5898 5.06015C18.5898 7.01015 16.9998 8.59015 15.0598 8.59015ZM15.0598 3.04015C13.9398 3.04015 13.0298 3.95015 13.0298 5.07015C13.0298 6.19015 13.9398 7.10015 15.0598 7.10015C16.1798 7.10015 17.0898 6.19015 17.0898 5.07015C17.0898 3.95015 16.1698 3.04015 15.0598 3.04015Z" fill="#6A564F"/>
<path d="M7.8298 20.8201C5.8798 20.8201 4.2998 19.2401 4.2998 17.2901C4.2998 15.3501 5.8798 13.7601 7.8298 13.7601C9.7798 13.7601 11.3598 15.3401 11.3598 17.2901C11.3598 19.2301 9.7798 20.8201 7.8298 20.8201ZM7.8298 15.2601C6.7098 15.2601 5.7998 16.1701 5.7998 17.2901C5.7998 18.4101 6.7098 19.3201 7.8298 19.3201C8.9498 19.3201 9.85981 18.4101 9.85981 17.2901C9.85981 16.1701 8.9498 15.2601 7.8298 15.2601Z" fill="#6A564F"/>
<path d="M22.1701 20.8201C20.2201 20.8201 18.6401 19.2401 18.6401 17.2901C18.6401 15.3501 20.2201 13.7601 22.1701 13.7601C24.1201 13.7601 25.7001 15.3401 25.7001 17.2901C25.6901 19.2301 24.1101 20.8201 22.1701 20.8201ZM22.1701 15.2601C21.0501 15.2601 20.1401 16.1701 20.1401 17.2901C20.1401 18.4101 21.0501 19.3201 22.1701 19.3201C23.2901 19.3201 24.2001 18.4101 24.2001 17.2901C24.1901 16.1701 23.2901 15.2601 22.1701 15.2601Z" fill="#6A564F"/>
</g>
<defs>
<filter id="filter0_d_30_2591" x="0.299805" y="1.53015" width="29.4004" height="29.23" filterUnits="userSpaceOnUse" color-interpolation-filters="sRGB">
<feFlood flood-opacity="0" result="BackgroundImageFix"/>
<feColorMatrix in="SourceAlpha" type="matrix" values="0 0 0 0 0 0 0 0 0 0 0 0 0 0 0 0 0 0 127 0" result="hardAlpha"/>
<feOffset dy="4"/>
<feGaussianBlur stdDeviation="2"/>
<feComposite in2="hardAlpha" operator="out"/>
<feColorMatrix type="matrix" values="0 0 0 0 0 0 0 0 0 0 0 0 0 0 0 0 0 0 0.25 0"/>
<feBlend mode="normal" in2="BackgroundImageFix" result="effect1_dropShadow_30_2591"/>
<feBlend mode="normal" in="SourceGraphic" in2="effect1_dropShadow_30_2591" result="shape"/>
</filter>
</defs>
</svg>
